<?xml version="1.0" encoding="utf-8"?>
<!-- Generator: Adobe Illustrator 24.0.2, SVG Export Plug-In . SVG Version: 6.00 Build 0)  -->
<svg version="1.1" id="Layer_1" xmlns="http://www.w3.org/2000/svg" xmlns:xlink="http://www.w3.org/1999/xlink" x="0px" y="0px"
	 viewBox="0 0 2421 1606" style="enable-background:new 0 0 2421 1606;" xml:space="preserve">
<style type="text/css">
	.st0{display:none;}
	.st1{fill:none;stroke:#68686C;stroke-width:16.3125;}
	.st2{fill:#1868A8;}
	.st3{fill:#68686C;}
	.st4{fill:#2596BE;}
</style>
<rect x="1.2" y="0" class="st0" width="2421" height="1606"/>
<g>
	<path class="st1" d="M1167.3,622.9v81.6h135.9v-81.6c78.3-65.3,97.9-106.9,97.9-119.6v-97.9c-4.3-65.3-67.1-110.6-97.9-125.1
		c-9.1-5.4-45.7-13-119.6,0c-73.9,13.1-106.9,88.8-114.2,125.1V487C1069.4,530.4,1134.7,595.7,1167.3,622.9z"/>
	<path class="st2" d="M1499,747.9c3.6-3.6,1.1-15.2-38.1-32.6c-39.1-17.4-38.1-3.6-32.6,5.4C1441,733.4,1472.9,756.6,1499,747.9z"/>
	<path class="st2" d="M1575.1,704.4c-5.4,7.3-23.9,19.6-54.4,10.9s-45.3-18.1-48.9-21.8C1468.2,684.5,1483.8,674,1575.1,704.4z"/>
	<path class="st2" d="M1651.3,655.5c-14.5,14.5-63.1,34.8-141.4,0C1508.1,651.9,1533.8,646.8,1651.3,655.5z"/>
	<path class="st2" d="M1694.8,601.1c-1.8,16.3-32.6,42.4-141.4,16.3c-5.4-5.4,4.3-16.3,87-16.3H1694.8z"/>
	<path class="st2" d="M1683.9,552.2c-74.3,1.8-232.7,10.9-271.9,32.6c-18.1,9.1-54.4,35.9-54.4,70.7c1.8,10.9,15.2,35.9,54.4,48.9
		c14.5,3.6,29.4,2.2-27.2-32.6c-1.8-3.6-1.1-9.8,16.3-5.4c7.3,3.6,26.1,10.9,43.5,10.9c5.4,1.8,4.4-2.2-43.5-32.6
		c18.1,3.6,59.8,10.9,81.6,10.9c12.7-1.8,18.5-9.8-59.8-27.2c-16.3-3.6-20.7-9.8,92.4-5.4c10.9-1.8,12-9.8-70.7-27.2L1683.9,552.2z"
		/>
	<path class="st2" d="M1439.2,595.7c72.5-7.3,229.5-20.7,277.3-16.3c3.6,7.3,8.7,23.9,0,32.6c23.6-3.6,75-23.9,92.4-76.1
		C1705.6,546.8,1487,573.9,1439.2,595.7z"/>
	<path class="st2" d="M927.9,748.1c-3.6-3.6-1.1-15.2,38.1-32.6c39.2-17.4,38.1-3.6,32.6,5.4C985.9,733.6,954,756.8,927.9,748.1z"/>
	<path class="st2" d="M851.8,704.6c5.4,7.3,23.9,19.6,54.4,10.9s45.3-18.1,48.9-21.8C958.8,684.6,943.2,674.1,851.8,704.6z"/>
	<path class="st2" d="M775.7,655.6c14.5,14.5,63.1,34.8,141.4,0C918.9,652,893.1,646.9,775.7,655.6z"/>
	<path class="st2" d="M732.2,601.3c1.8,16.3,32.6,42.4,141.4,16.3c5.4-5.4-4.4-16.3-87-16.3H732.2z"/>
	<path class="st2" d="M743.1,552.3c74.3,1.8,232.7,10.9,271.9,32.6c18.1,9.1,54.4,35.9,54.4,70.7c-1.8,10.9-15.2,35.9-54.4,48.9
		c-14.5,3.6-29.4,2.2,27.2-32.6c1.8-3.6,1.1-9.8-16.3-5.4c-7.3,3.6-26.1,10.9-43.5,10.9c-5.4,1.8-4.4-2.2,43.5-32.6
		c-18.1,3.6-59.8,10.9-81.6,10.9c-12.7-1.8-18.5-9.8,59.8-27.2c16.3-3.6,20.7-9.8-92.4-5.4c-10.9-1.8-12-9.8,70.7-27.2L743.1,552.3z
		"/>
	<path class="st2" d="M987.8,595.8c-72.5-7.3-229.5-20.7-277.3-16.3c-3.6,7.3-8.7,23.9,0,32.6c-23.6-3.6-75-23.9-92.4-76.1
		C721.3,546.9,939.9,574.1,987.8,595.8z"/>
	<path class="st1" d="M1303.3,737.1h-135.9c4.3,56.5,52.6,67.1,76.1,65.3C1286.9,802.3,1301.4,758.8,1303.3,737.1z"/>
	<g>
		<path class="st3" d="M1065.6,922.8c-15.7,0-28.3,6.1-38,18.3l-0.7-15.9h-20.5V1052h21.7v-90.4c2.9-6.1,7.1-11,12.4-14.8
			c5.3-3.7,11.5-5.6,18.5-5.6c8.7,0,15,2.2,19.1,6.6c4.1,4.4,6.2,11.2,6.3,20.3v83.9h21.7v-83.8
			C1105.9,937.9,1092.4,922.8,1065.6,922.8z"/>
		<path class="st3" d="M1217,987.5c-6.8-3.4-15.5-6.3-26.4-8.7c-10.8-2.4-18.3-4.9-22.4-7.6c-4.1-2.6-6.2-6.6-6.2-11.8
			c0-5.6,2.2-10.1,6.7-13.5c4.4-3.5,10.6-5.2,18.5-5.2c7.7,0,14,2.1,19,6.4c5.1,4.3,7.6,9.5,7.6,15.4h21.8
			c0-11.6-4.5-21.1-13.5-28.5c-8.9-7.4-20.5-11.1-34.9-11.1c-13.7,0-25,3.6-33.8,10.8c-8.7,7.2-13.1,16-13.1,26.4
			c0,6.3,1.6,11.7,4.6,16.2c3.1,4.5,7.9,8.4,14.3,11.7c6.4,3.2,15.2,6.1,26.1,8.4c11,2.3,18.7,5.1,23.1,8.4
			c4.5,3.2,6.7,7.7,6.7,13.6c0,5.5-2.5,10-7.4,13.3s-11.5,4.9-19.7,4.9c-9,0-16.1-2.1-21.6-6.3c-5.4-4.3-8.3-10-8.7-17.3H1136
			c0,7.5,2.2,14.5,6.6,21c4.4,6.4,10.6,11.4,18.4,15s16.7,5.4,26.9,5.4c14.5,0,26.2-3.4,35.3-10.2c9.1-6.9,13.6-16,13.6-27.3
			c0-6.8-1.6-12.5-4.9-17.2C1228.7,994.9,1223.7,990.9,1217,987.5z"/>
		<path class="st3" d="M548.8,922.8c-10.1,0-19.4,2.8-28.1,8.4c-8.6,5.5-15.4,13.3-20.2,23.2c-4.7,9.8-7.1,21-7.1,33.6v4
			c0,19,5.4,34.1,16.2,45.4s24.8,16.9,42,16.9c21.3,0,37.2-8.1,47.6-24.6l-13.2-10.3c-3.9,5.1-8.6,9.3-13.9,12.4
			c-5.4,3.1-11.8,4.7-19.5,4.7c-10.8,0-19.7-3.8-26.7-11.5c-7-7.7-10.6-17.8-10.9-30.3h0.1c-0.2-2.5-0.2-9.3,0.5-17.7h0.3
			c1.4-11.5,5.1-20.4,11-26.7c5.9-6.4,13.2-9.6,22-9.6c9.1,0,16.3,3,21.6,9.2c5.3,6,8.3,14.5,8.9,25.5v1.6h-49.3v17.7h70.8v-9
			c0-20.2-4.6-35.7-13.7-46.6C578.1,928.2,565.3,922.8,548.8,922.8z"/>
		<polygon class="st3" points="801.6,1022.6 769.4,925.2 747.3,925.2 793.2,1052 809.7,1052 855.1,925.2 833,925.2 		"/>
		<path class="st3" d="M423.6,922.9c-15.4,0-27.9,5.9-37.5,17.7V872h-21.7v180.1h21.7v-90.4c2.9-6.1,7.1-11,12.4-14.8
			c5.3-3.7,11.5-5.6,18.5-5.6c8.7,0,15,2.2,19.1,6.6c4.1,4.4,6.2,11.2,6.3,20.3v83.9h21.7v-83.8C463.9,938,450.4,922.9,423.6,922.9z
			"/>
		<path class="st3" d="M926.6,922.8c-10.1,0-19.4,2.8-28.1,8.4c-8.6,5.5-15.4,13.3-20.2,23.2c-4.7,9.8-7.1,21-7.1,33.6v4
			c0,19,5.4,34.1,16.2,45.4s24.8,16.9,42,16.9c21.2,0,37.1-8.1,47.6-24.6l-13.2-10.3c-3.9,5.1-8.6,9.3-13.9,12.4
			c-5.4,3.1-11.8,4.7-19.5,4.7c-10.8,0-19.7-3.8-26.7-11.5c-7-7.7-10.6-17.8-10.9-30.3h0.3c-0.2-2.5-0.2-9.3,0.5-17.7h0.1
			c1.4-11.5,5.1-20.4,11-26.7c5.9-6.4,13.2-9.6,22-9.6c9,0,16.2,3,21.6,9.2c5.3,6,8.3,14.5,8.9,25.5v1.6h-49.1v17.7h70.6v-9
			c0-20.2-4.6-35.7-13.7-46.6C955.9,928.2,943.1,922.8,926.6,922.8z"/>
		<path class="st3" d="M1795.8,922.8c-11.2,0-21.1,2.7-29.9,8.1c-8.7,5.4-15.5,13.1-20.4,23s-7.3,21.1-7.3,33.5h0.1v1.5
			c0,19.7,5.3,35.5,15.9,47.5c10.7,11.9,24.6,17.9,41.8,17.9c11.4,0,21.4-2.7,30.2-8.2c8.9-5.5,15.6-13.1,20.3-22.9
			c4.8-9.9,7.2-21,7.2-33.3v-1.5c0-19.8-5.4-35.7-16.1-47.7C1827,928.8,1813.1,922.8,1795.8,922.8z M1822.3,1023.8
			c-6.5,8.6-15.3,12.9-26.3,12.9s-19.7-4.3-26.3-12.8c-6.4-8.5-9.7-19.8-9.7-33.9c0-15.9,3.3-28,9.8-36.5
			c6.6-8.5,15.2-12.8,25.9-12.8c11,0,19.7,4.3,26.3,13c6.7,8.6,10,19.9,10,33.8C1832,1003,1828.8,1015.1,1822.3,1023.8z"/>
		<path class="st3" d="M1942.4,922.8c-15.7,0-28.3,6.1-38,18.3l-0.7-15.9h-20.4V1052h21.7v-90.4c2.9-6.1,7.1-11,12.4-14.8
			c5.3-3.7,11.5-5.6,18.5-5.6c8.7,0,15,2.2,19.1,6.6c4.1,4.4,6.2,11.2,6.3,20.3v83.9h21.7v-83.8
			C1982.7,937.9,1969.2,922.8,1942.4,922.8z"/>
		<path class="st3" d="M2108.6,999.7c-3.2-4.8-8.2-8.8-14.9-12.2c-6.8-3.4-15.5-6.3-26.4-8.7c-10.8-2.4-18.3-4.9-22.4-7.6
			c-4.1-2.6-6.2-6.6-6.2-11.8c0-5.6,2.2-10.1,6.7-13.5c4.4-3.5,10.6-5.2,18.5-5.2c7.7,0,14,2.1,19,6.4c5.1,4.3,7.6,9.5,7.6,15.4
			h21.8c0-11.6-4.5-21.1-13.5-28.5c-8.9-7.4-20.5-11.1-34.9-11.1c-13.7,0-25,3.6-33.8,10.8c-8.7,7.2-13.1,16-13.1,26.4
			c0,6.3,1.5,11.7,4.6,16.2s7.9,8.4,14.3,11.7c6.4,3.2,15.2,6.1,26.1,8.4c11,2.3,18.7,5.1,23.1,8.4c4.5,3.2,6.7,7.7,6.7,13.6
			c0,5.5-2.5,10-7.5,13.3c-4.9,3.3-11.5,4.9-19.7,4.9c-8.9,0-16.1-2.1-21.6-6.3c-5.4-4.3-8.3-10-8.7-17.3h-21.7
			c0,7.5,2.2,14.5,6.6,21c4.5,6.4,10.6,11.4,18.4,15c7.9,3.6,16.8,5.4,27,5.4c14.5,0,26.2-3.4,35.3-10.2c9.1-6.9,13.6-16,13.6-27.3
			C2113.5,1010.1,2111.9,1004.4,2108.6,999.7z"/>
		<path class="st3" d="M1319.2,922.8c-11.2,0-21.1,2.7-29.9,8.1c-8.7,5.4-15.5,13.1-20.4,23s-7.3,21.1-7.3,33.5h0.2v1.5
			c0,19.7,5.3,35.5,15.9,47.5c10.7,11.9,24.6,17.9,41.8,17.9c11.4,0,21.4-2.7,30.2-8.2s15.6-13.1,20.3-22.9c4.7-9.9,7.1-21,7.1-33.3
			v-1.5c0-19.8-5.4-35.7-16.1-47.7C1350.4,928.8,1336.5,922.8,1319.2,922.8z M1345.7,1023.8c-6.5,8.6-15.3,12.9-26.3,12.9
			s-19.7-4.3-26.3-12.8c-6.5-8.5-9.7-19.8-9.7-33.9c0-15.9,3.3-28,9.8-36.5c6.6-8.5,15.2-12.8,25.9-12.8c11,0,19.7,4.3,26.3,13
			c6.7,8.6,10,19.9,10,33.8C1355.4,1003,1352.2,1015.1,1345.7,1023.8z"/>
		<path class="st3" d="M1696.1,879.1c-4.2,0-7.4,1.2-9.6,3.6s-3.2,5.4-3.2,8.9s1,6.4,3.2,8.8c2.2,2.3,5.4,3.5,9.6,3.5
			s7.4-1.2,9.6-3.5c2.2-2.4,3.3-5.3,3.3-8.8s-1.1-6.5-3.3-8.9C1703.5,880.3,1700.3,879.1,1696.1,879.1z"/>
		<path class="st3" d="M1545.1,1017.5c-5.4,12.3-16.4,18.5-33,18.5c-15.6,0-23.4-9.6-23.4-28.8v-81.9H1467v82.5
			c0.1,15.4,3.7,27,10.7,34.9c7.1,7.8,17.4,11.7,30.9,11.7c16.3,0,28.7-5,37.1-14.9l0.5,12.5h20.6V925.3h-21.7V1017.5z"/>
		<rect x="1408.5" y="872" class="st3" width="21.7" height="180"/>
		<path class="st3" d="M1634.9,1032.1c-2.2-2.6-3.2-6.4-3.2-11.5V942h23.7v-16.8h-23.7v-30.7h-21.6v30.7H1587V942h23.1v78.6
			c0,10.8,2.5,19.1,7.4,25s12.2,8.8,21.9,8.8c5.3,0,10.9-0.7,16.6-2.3v-17.6c-4.4,0.9-7.8,1.4-10.3,1.4
			C1640.6,1035.9,1637,1034.6,1634.9,1032.1z"/>
		<rect x="1685" y="925.2" class="st3" width="21.7" height="126.8"/>
	</g>
	<path class="st3" d="M712.2,933.8c-8.2-7.3-19.7-11-34.3-11c-9.2,0-17.7,1.8-25.4,5.2c-7.7,3.5-13.8,8.2-18.3,14.1
		c-4.5,5.9-6.7,12-6.7,18.3h21.8c0-5.6,2.7-10.3,7.9-14.2c5.3-3.9,11.8-5.9,19.5-5.9c8.8,0,15.5,2.3,20,6.8c4.5,4.4,6.8,10.4,6.8,18
		v10h-21.1c-18.2,0-32.3,3.7-42.4,11c-10,7.3-15,17.5-15,30.7c0,10.9,4,19.9,12,27c8,7,18.3,10.5,30.8,10.5c4.5,0,8.8-0.5,12.9-1.6
		c16.4-2.3,44.7-12.7,44.3-39.2l-0.2,0.2l0.2-0.7l0.1,0.5v-49.6C724.8,951.1,720.5,941.1,712.2,933.8z M653.5,1029.7
		c-4.5-3.8-6.8-9.1-6.8-15.9c0-15.5,13.2-23.3,39.8-23.3h17v26c-2.7,5.6-7.1,10.2-13.2,13.7c-6.1,3.5-12.5,5.3-19.3,5.3
		C663.9,1035.5,658,1033.6,653.5,1029.7z"/>
	<g>
		<path class="st4" d="M903.2,1125.5c-1.8,0-3.2,0.5-4.1,1.5c-0.9,1-1.3,2.3-1.3,3.8s0.4,2.8,1.3,3.7c0.9,1,2.3,1.5,4.1,1.5
			s3.2-0.5,4.1-1.5s1.4-2.2,1.4-3.7s-0.5-2.8-1.4-3.8C906.4,1126,905,1125.5,903.2,1125.5z"/>
		<path class="st4" d="M1015.2,1151.1c-3.7-4.7-8.8-7-15.4-7c-6.4,0-11.5,2.5-15.4,7.5c-3.9,4.9-5.8,11.6-5.8,20
			c0,8.8,2,15.7,6,20.8c3.9,5.1,9,7.6,15.3,7.6c6.4,0,11.4-2.1,15.1-6.4v4.6c0,4.6-1.3,8.2-3.8,10.7s-6,3.8-10.5,3.8
			c-5.7,0-10.5-2.4-14.5-7.3l-4.8,5.5c1.9,2.9,4.8,5.1,8.5,6.8s7.5,2.5,11.4,2.5c6.9,0,12.5-2,16.6-6s6.2-9.5,6.2-16.5v-52.6h-8.4
			L1015.2,1151.1z M1014.9,1184.3c-2.7,5.3-7,7.9-12.8,7.9c-4.5,0-8-1.8-10.5-5.2s-3.7-8.2-3.7-14.3c0-6.9,1.3-12,3.8-15.5
			c2.5-3.4,6-5.2,10.5-5.2c5.6,0,9.9,2.6,12.7,7.7V1184.3z"/>
		<path class="st4" d="M948.7,1144.1c-6.6,0-12,2.6-16.1,7.8l-0.3-6.8l0,0h-8.8v53.9h9.2v-38.4c1.3-2.6,3-4.7,5.3-6.3
			c2.3-1.6,4.9-2.4,7.9-2.4c3.7,0,6.4,0.9,8.1,2.8c1.8,1.8,2.7,4.7,2.7,8.6v35.7h9.2v-35.6C965.8,1150.5,960.1,1144.1,948.7,1144.1z
			"/>
		<rect x="757.1" y="1145.1" class="st4" width="9.2" height="53.9"/>
		<rect x="731.3" y="1122.5" class="st4" width="9.2" height="76.5"/>
		<path class="st4" d="M761.7,1125.5c-1.8,0-3.2,0.5-4.1,1.5c-0.9,1-1.3,2.3-1.3,3.8s0.5,2.8,1.3,3.7c0.9,1,2.3,1.5,4.1,1.5
			s3.2-0.5,4.1-1.5s1.4-2.2,1.4-3.7s-0.5-2.8-1.4-3.8C764.9,1126,763.5,1125.5,761.7,1125.5z"/>
		<rect x="898.5" y="1145.1" class="st4" width="9.2" height="53.9"/>
		<path class="st4" d="M705.7,1193.5L705.7,1193.5c0.1-0.1,0.2-0.1,0.2-0.2l0,0c2.5-2.1,7.5-6.7,9-9.6l0.1-0.2v-22
			c-0.2-5.5-2-9.7-5.5-12.8s-8.4-4.7-14.6-4.7c-3.9,0-7.5,0.7-10.8,2.2s-5.9,3.5-7.8,6c-1.9,2.5-2.8,5.1-2.8,7.8h9.3
			c0-2.3,1.1-4.3,3.3-6c2.3-1.7,5-2.5,8.3-2.5c3.7,0,6.6,1,8.5,2.9s2.9,4.5,2.9,7.7v4.2h-9c-7.7,0-13.7,1.6-18,4.7
			s-6.4,7.5-6.4,13.1c0,4.6,1.7,8.4,5.1,11.4c3.4,3,7.8,4.5,13.1,4.5C696.4,1200,701.4,1197.9,705.7,1193.5L705.7,1193.5z
			 M700.2,1189.8c-2.6,1.4-5.3,2.2-8.2,2.2c-3.1,0-5.5-0.8-7.4-2.4s-2.9-3.9-2.9-6.8c0-6.6,5.6-9.9,16.9-9.9h7.2v11.1
			C704.7,1186.4,702.8,1188.3,700.2,1189.8z"/>
		<path class="st4" d="M865.5,1144.1c-6.6,0-12,2.6-16.1,7.8l-0.3-6.8l0,0h-8.8v53.9h9.2v-38.4c1.3-2.6,3-4.7,5.3-6.3
			c2.3-1.6,4.9-2.4,7.9-2.4c3.7,0,6.4,0.9,8.1,2.8c1.8,1.8,2.7,4.7,2.7,8.6v35.7h9.2v-35.6C882.6,1150.5,876.9,1144.1,865.5,1144.1z
			"/>
		<path class="st4" d="M816.5,1151.1c-3.7-4.7-8.8-7-15.4-7c-6.4,0-11.5,2.5-15.4,7.5c-3.9,4.9-5.8,11.6-5.8,20
			c0,8.8,2,15.7,5.9,20.8c3.9,5.1,9,7.6,15.3,7.6c6.4,0,11.4-2.1,15.1-6.4v4.6c0,4.6-1.3,8.2-3.8,10.7s-6,3.8-10.5,3.8
			c-5.7,0-10.5-2.4-14.5-7.3l-4.8,5.5c1.9,2.9,4.8,5.1,8.5,6.8s7.5,2.5,11.4,2.5c6.9,0,12.5-2,16.6-6s6.2-9.5,6.2-16.5v-52.6h-8.4
			L816.5,1151.1z M816.2,1184.3c-2.7,5.3-7,7.9-12.8,7.9c-4.5,0-8-1.8-10.5-5.2s-3.7-8.2-3.7-14.3c0-6.9,1.3-12,3.8-15.5
			c2.5-3.4,6-5.2,10.5-5.2c5.6,0,9.9,2.6,12.7,7.7V1184.3z"/>
		<rect x="1067.6" y="1126.5" class="st4" width="9.6" height="72.5"/>
		<path class="st4" d="M1597.8,1144.1c-6.6,0-12,2.6-16.1,7.8l-0.3-6.8l0,0h-8.8v53.9h9.2v-38.4c1.3-2.6,3-4.7,5.3-6.3
			s4.9-2.4,7.9-2.4c3.7,0,6.4,0.9,8.1,2.8c1.8,1.8,2.7,4.7,2.7,8.6v35.7h9.2v-35.6C1614.9,1150.5,1609.2,1144.1,1597.8,1144.1z"/>
		<rect x="1547.7" y="1145.1" class="st4" width="9.2" height="53.9"/>
		<path class="st4" d="M1552.4,1125.5c-1.8,0-3.2,0.5-4.1,1.5s-1.3,2.3-1.3,3.8s0.4,2.8,1.3,3.7c0.9,1,2.3,1.5,4.1,1.5
			c1.8,0,3.2-0.5,4.1-1.5s1.4-2.2,1.4-3.7s-0.5-2.8-1.4-3.8S1554.2,1125.5,1552.4,1125.5z"/>
		<path class="st4" d="M1643.4,1167.1v7.4h29.9v-3.8c0-8.6-1.9-15.2-5.8-19.8c-3.8-4.6-9.3-6.9-16.3-6.9c-4.2,0-8.2,1.2-11.9,3.6
			c-3.7,2.4-6.5,5.7-8.6,9.9c-2,4.2-3,9-3,14.3v1.7c0,8.1,2.3,14.5,6.9,19.3c4.5,4.8,10.5,7.2,17.8,7.2c9,0,15.8-3.5,20.2-10.6
			l-5.6-4.4c-1.7,2.2-3.6,4-5.9,5.3s-5,2-8.3,2c-4.6,0-8.4-1.6-11.4-4.9c-2.8-3.2-4.4-7.3-4.6-12.4l0,0c-0.1-1-0.2-4.1,0.2-8h0.1
			c0.6-4.8,2.2-8.5,4.7-11.2c2.6-2.7,5.7-4.1,9.4-4.1c3.9,0,7,1.3,9.1,3.8c2.3,2.6,3.5,6.2,3.8,10.9v0.7H1643.4z"/>
		<path class="st4" d="M1717.2,1171.4c-2.9-1.4-6.6-2.7-11.2-3.7s-7.7-2.1-9.5-3.2c-1.7-1.1-2.6-2.8-2.6-5c0-2.3,0.9-4.2,2.8-5.7
			s4.6-2.2,7.9-2.2s6,0.9,8.1,2.7s3.2,4,3.2,6.5h9.3c0-4.9-1.9-8.9-5.7-12.1c-3.7-3.1-8.7-4.7-14.8-4.7c-5.8,0-10.5,1.5-14.3,4.6
			c-3.7,3-5.6,6.8-5.6,11.2c0,2.7,0.6,5,1.9,6.9s3.4,3.6,6.1,5c2.8,1.4,6.4,2.6,11.1,3.6s7.9,2.2,9.8,3.6s2.8,3.3,2.8,5.8
			c0,2.4-1.1,4.3-3.3,5.5c-2.1,1.4-4.9,2.1-8.4,2.1c-3.8,0-6.9-0.9-9.2-2.7c-2.3-1.9-3.5-4.3-3.7-7.4h-9.2c0,3.2,0.9,6.1,2.8,8.9
			c1.9,2.7,4.5,4.9,7.8,6.4c3.4,1.5,7.2,2.3,11.5,2.3c6.2,0,11.2-1.4,15-4.3c3.9-2.9,5.8-6.8,5.8-11.6c0-2.9-0.7-5.3-2.1-7.3
			C1722.2,1174.5,1720,1172.8,1717.2,1171.4z"/>
		<path class="st4" d="M1777.1,1176.6c-1.3-2.1-3.4-3.8-6.3-5.2c-2.9-1.4-6.6-2.7-11.2-3.7s-7.7-2.1-9.5-3.2c-1.7-1.1-2.6-2.8-2.6-5
			c0-2.3,0.9-4.2,2.8-5.7s4.6-2.2,7.9-2.2s6,0.9,8.1,2.7s3.2,4,3.2,6.5h9.3c0-4.9-1.9-8.9-5.7-12.1c-3.7-3.1-8.7-4.7-14.8-4.7
			c-5.8,0-10.5,1.5-14.3,4.6c-3.7,3-5.6,6.8-5.6,11.2c0,2.7,0.6,5,1.9,6.9s3.4,3.6,6.1,5s6.4,2.6,11.1,3.6s7.9,2.2,9.8,3.6
			s2.8,3.3,2.8,5.8c0,2.4-1,4.3-3.2,5.5c-2.1,1.4-4.9,2.1-8.4,2.1c-3.8,0-6.9-0.9-9.2-2.7c-2.3-1.9-3.5-4.3-3.7-7.4h-9.2
			c0,3.2,0.9,6.1,2.8,8.9c1.9,2.7,4.5,4.9,7.8,6.4s7.1,2.3,11.4,2.3c6.1,0,11.1-1.4,15-4.3s5.8-6.8,5.8-11.6
			C1779.2,1181,1778.5,1178.6,1777.1,1176.6z"/>
		<path class="st4" d="M1260.6,1144.1c-6.6,0-12,2.6-16.1,7.8l-0.3-6.8l0,0h-8.8v53.9h9.2v-38.4c1.3-2.6,3-4.7,5.3-6.3
			s4.9-2.4,7.9-2.4c3.7,0,6.4,0.9,8.1,2.8c1.8,1.8,2.7,4.7,2.7,8.6v35.7h9.2v-35.6C1277.7,1150.5,1272,1144.1,1260.6,1144.1z"/>
		<path class="st4" d="M1326.8,1150.6c-3.7-4.3-8.7-6.5-15-6.5c-6.4,0-11.5,2.6-15.4,7.6s-5.9,11.6-5.9,19.9h-0.1v0.7
			c0,8.2,2,14.9,5.9,20c4,5.1,9.1,7.7,15.3,7.7c6.6,0,11.7-2.3,15.4-6.8l0.5,5.8h8.5v-76.5h-9.2L1326.8,1150.6L1326.8,1150.6z
			 M1326.9,1184.3c-2.7,5.3-7,7.9-12.8,7.9c-4.5,0-8-1.8-10.5-5.2s-3.8-8.2-3.8-14.3c0-6.9,1.2-12,3.8-15.6
			c2.6-3.4,6.1-5.2,10.6-5.2c5.7,0,9.9,2.5,12.7,7.6L1326.9,1184.3L1326.9,1184.3z"/>
		<polygon class="st4" points="1088.2,1126.4 1088.2,1134.3 1111.5,1134.3 1111.5,1199 1121,1199 1121,1134.3 1144.3,1134.3 
			1144.3,1126.4 		"/>
		<path class="st4" d="M1402.3,1144.2c-6.6,0-11.7,2.3-15.4,6.9v-28.5h-9.2v76.5h8.5l0.4-6.2c3.7,4.8,9,7.2,15.8,7.2
			c6.3,0,11.4-2.5,15.2-7.5c3.8-5,5.7-11.7,5.7-19.9v-0.8c0-8.6-1.8-15.4-5.6-20.3C1414,1146.7,1408.8,1144.2,1402.3,1144.2z
			 M1410.4,1187.2c-2.5,3.4-5.9,5.1-10.3,5.1c-6,0-10.4-2.9-13.2-8.5v-23.3c2.7-5.7,7-8.5,13.1-8.5c4.6,0,8.1,1.7,10.5,5.1
			s3.6,8.2,3.6,14.5C1414.1,1178.5,1412.9,1183.6,1410.4,1187.2z"/>
		<path class="st4" d="M1469.1,1184.3c-2.3,5.3-7,7.9-14,7.9c-6.7,0-10-4.1-10-12.3v-34.8h-9.2v35.1c0,6.5,1.5,11.4,4.5,14.8
			c3,3.3,7.4,5,13.1,5c7,0,12.2-2.1,15.8-6.3l0.2,5.3h8.8v-53.9h-9.2L1469.1,1184.3L1469.1,1184.3z"/>
		<path class="st4" d="M1525.4,1171.4c-2.9-1.4-6.6-2.7-11.2-3.7s-7.7-2.1-9.5-3.2c-1.7-1.1-2.6-2.8-2.6-5c0-2.3,0.9-4.2,2.8-5.7
			s4.5-2.2,7.9-2.2c3.3,0,6,0.9,8.1,2.7s3.2,4,3.2,6.5h9.3c0-4.9-1.9-8.9-5.7-12.1c-3.7-3.1-8.7-4.7-14.8-4.7
			c-5.8,0-10.5,1.5-14.3,4.6c-3.7,3-5.6,6.8-5.6,11.2c0,2.7,0.6,5,1.9,6.9s3.4,3.6,6.1,5c2.8,1.4,6.4,2.6,11.1,3.6s7.9,2.2,9.8,3.6
			c1.8,1.4,2.8,3.3,2.8,5.8c0,2.4-1.1,4.3-3.2,5.5c-2.1,1.4-4.9,2.1-8.4,2.1c-3.8,0-6.9-0.9-9.2-2.7c-2.3-1.9-3.5-4.3-3.7-7.4h-9.2
			c0,3.2,0.9,6.1,2.8,8.9c1.9,2.7,4.5,4.9,7.8,6.4s7.1,2.3,11.4,2.3c6.2,0,11.1-1.4,15-4.3s5.8-6.8,5.8-11.6c0-2.9-0.7-5.3-2.1-7.3
			C1530.4,1174.5,1528.2,1172.8,1525.4,1171.4z"/>
	</g>
	<path class="st4" d="M1219.9,1187l0.2-0.5c0-0.1,0-0.2,0-0.2v-24.8c-0.2-5.5-2-9.7-5.5-12.8c-3.5-3.1-8.4-4.7-14.6-4.7
		c-3.9,0-7.5,0.7-10.8,2.2s-5.9,3.5-7.8,6s-2.8,5.1-2.8,7.8h9.3c0-2.3,1.1-4.3,3.3-6c2.3-1.7,5-2.5,8.3-2.5c3.7,0,6.6,1,8.5,2.9
		s2.9,4.5,2.9,7.7v4.2h-9c-7.7,0-13.7,1.6-18,4.7s-6.4,7.5-6.4,13.1c0,4.6,1.7,8.4,5.1,11.4s7.8,4.5,13.1,4.5c2.3,0,4.5-0.3,6.6-1
		c2.4-0.3,5.7-1.1,8.7-2.6C1213.7,1194.2,1218.4,1189.8,1219.9,1187z M1210.8,1184c-1.1,2.4-3,4.3-5.6,5.8c-2.6,1.4-5.3,2.2-8.2,2.2
		c-3.1,0-5.5-0.8-7.4-2.4s-2.9-3.9-2.9-6.8c0-6.6,5.6-9.9,16.9-9.9h7.2V1184z"/>
</g>
<image style="display:none;overflow:visible;" width="244" height="124" xlink:href="../../../../../../Users/stefan/Downloads/heavensolutions-logo-blue-e1460531094354.png"  transform="matrix(7.9478 0 0 7.9478 240.8719 257.2433)">
</image>
</svg>
